<svg xmlns="http://www.w3.org/2000/svg" xmlns:xlink="http://www.w3.org/1999/xlink" width="600" height="400" viewBox="0 0 2400 1600">
<defs>
  <clipPath id="clip290">
    <rect x="0" y="0" width="2400" height="1600"></rect>
  </clipPath>
</defs>
<path clip-path="url(#clip290)" d="M0 1600 L2400 1600 L2400 0 L0 0  Z" fill="#ffffff" fill-rule="evenodd" fill-opacity="1"></path>
<defs>
  <clipPath id="clip291">
    <rect x="480" y="0" width="1681" height="1600"></rect>
  </clipPath>
</defs>
<path clip-path="url(#clip290)" d="M249.542 1423.18 L2352.76 1423.18 L2352.76 47.2441 L249.542 47.2441  Z" fill="#ffffff" fill-rule="evenodd" fill-opacity="1"></path>
<defs>
  <clipPath id="clip292">
    <rect x="249" y="47" width="2104" height="1377"></rect>
  </clipPath>
</defs>
<polyline clip-path="url(#clip292)" style="stroke:#000000; stroke-linecap:round; stroke-linejoin:round; stroke-width:2; stroke-opacity:0.1; fill:none" points="309.067,1423.18 309.067,47.2441 "></polyline>
<polyline clip-path="url(#clip292)" style="stroke:#000000; stroke-linecap:round; stroke-linejoin:round; stroke-width:2; stroke-opacity:0.1; fill:none" points="817.325,1423.18 817.325,47.2441 "></polyline>
<polyline clip-path="url(#clip292)" style="stroke:#000000; stroke-linecap:round; stroke-linejoin:round; stroke-width:2; stroke-opacity:0.1; fill:none" points="1325.58,1423.18 1325.58,47.2441 "></polyline>
<polyline clip-path="url(#clip292)" style="stroke:#000000; stroke-linecap:round; stroke-linejoin:round; stroke-width:2; stroke-opacity:0.1; fill:none" points="1833.84,1423.18 1833.84,47.2441 "></polyline>
<polyline clip-path="url(#clip292)" style="stroke:#000000; stroke-linecap:round; stroke-linejoin:round; stroke-width:2; stroke-opacity:0.1; fill:none" points="2342.1,1423.18 2342.1,47.2441 "></polyline>
<polyline clip-path="url(#clip290)" style="stroke:#000000; stroke-linecap:round; stroke-linejoin:round; stroke-width:4; stroke-opacity:1; fill:none" points="249.542,1423.18 2352.76,1423.18 "></polyline>
<polyline clip-path="url(#clip290)" style="stroke:#000000; stroke-linecap:round; stroke-linejoin:round; stroke-width:4; stroke-opacity:1; fill:none" points="309.067,1423.18 309.067,1404.28 "></polyline>
<polyline clip-path="url(#clip290)" style="stroke:#000000; stroke-linecap:round; stroke-linejoin:round; stroke-width:4; stroke-opacity:1; fill:none" points="817.325,1423.18 817.325,1404.28 "></polyline>
<polyline clip-path="url(#clip290)" style="stroke:#000000; stroke-linecap:round; stroke-linejoin:round; stroke-width:4; stroke-opacity:1; fill:none" points="1325.58,1423.18 1325.58,1404.28 "></polyline>
<polyline clip-path="url(#clip290)" style="stroke:#000000; stroke-linecap:round; stroke-linejoin:round; stroke-width:4; stroke-opacity:1; fill:none" points="1833.84,1423.18 1833.84,1404.28 "></polyline>
<polyline clip-path="url(#clip290)" style="stroke:#000000; stroke-linecap:round; stroke-linejoin:round; stroke-width:4; stroke-opacity:1; fill:none" points="2342.1,1423.18 2342.1,1404.28 "></polyline>
<path clip-path="url(#clip290)" d="M309.067 1454.1 Q305.456 1454.1 303.627 1457.66 Q301.822 1461.2 301.822 1468.33 Q301.822 1475.44 303.627 1479.01 Q305.456 1482.55 309.067 1482.55 Q312.701 1482.55 314.507 1479.01 Q316.335 1475.44 316.335 1468.33 Q316.335 1461.2 314.507 1457.66 Q312.701 1454.1 309.067 1454.1 M309.067 1450.39 Q314.877 1450.39 317.933 1455 Q321.011 1459.58 321.011 1468.33 Q321.011 1477.06 317.933 1481.67 Q314.877 1486.25 309.067 1486.25 Q303.257 1486.25 300.178 1481.67 Q297.123 1477.06 297.123 1468.33 Q297.123 1459.58 300.178 1455 Q303.257 1450.39 309.067 1450.39 Z" fill="#000000" fill-rule="evenodd" fill-opacity="1"></path><path clip-path="url(#clip290)" d="M776.943 1451.02 L795.299 1451.02 L795.299 1454.96 L781.225 1454.96 L781.225 1463.43 Q782.244 1463.08 783.263 1462.92 Q784.281 1462.73 785.3 1462.73 Q791.087 1462.73 794.466 1465.9 Q797.846 1469.08 797.846 1474.49 Q797.846 1480.07 794.374 1483.17 Q790.901 1486.25 784.582 1486.25 Q782.406 1486.25 780.138 1485.88 Q777.892 1485.51 775.485 1484.77 L775.485 1480.07 Q777.568 1481.2 779.79 1481.76 Q782.013 1482.32 784.489 1482.32 Q788.494 1482.32 790.832 1480.21 Q793.17 1478.1 793.17 1474.49 Q793.17 1470.88 790.832 1468.77 Q788.494 1466.67 784.489 1466.67 Q782.614 1466.67 780.739 1467.08 Q778.888 1467.5 776.943 1468.38 L776.943 1451.02 Z" fill="#000000" fill-rule="evenodd" fill-opacity="1"></path><path clip-path="url(#clip290)" d="M817.059 1454.1 Q813.448 1454.1 811.619 1457.66 Q809.813 1461.2 809.813 1468.33 Q809.813 1475.44 811.619 1479.01 Q813.448 1482.55 817.059 1482.55 Q820.693 1482.55 822.498 1479.01 Q824.327 1475.44 824.327 1468.33 Q824.327 1461.2 822.498 1457.66 Q820.693 1454.1 817.059 1454.1 M817.059 1450.39 Q822.869 1450.39 825.924 1455 Q829.003 1459.58 829.003 1468.33 Q829.003 1477.06 825.924 1481.67 Q822.869 1486.25 817.059 1486.25 Q811.248 1486.25 808.17 1481.67 Q805.114 1477.06 805.114 1468.33 Q805.114 1459.58 808.17 1455 Q811.248 1450.39 817.059 1450.39 Z" fill="#000000" fill-rule="evenodd" fill-opacity="1"></path><path clip-path="url(#clip290)" d="M847.221 1454.1 Q843.609 1454.1 841.781 1457.66 Q839.975 1461.2 839.975 1468.33 Q839.975 1475.44 841.781 1479.01 Q843.609 1482.55 847.221 1482.55 Q850.855 1482.55 852.66 1479.01 Q854.489 1475.44 854.489 1468.33 Q854.489 1461.2 852.66 1457.66 Q850.855 1454.1 847.221 1454.1 M847.221 1450.39 Q853.031 1450.39 856.086 1455 Q859.165 1459.58 859.165 1468.33 Q859.165 1477.06 856.086 1481.67 Q853.031 1486.25 847.221 1486.25 Q841.41 1486.25 838.332 1481.67 Q835.276 1477.06 835.276 1468.33 Q835.276 1459.58 838.332 1455 Q841.41 1450.39 847.221 1450.39 Z" fill="#000000" fill-rule="evenodd" fill-opacity="1"></path><path clip-path="url(#clip290)" d="M1270.11 1481.64 L1277.75 1481.64 L1277.75 1455.28 L1269.44 1456.95 L1269.44 1452.69 L1277.7 1451.02 L1282.38 1451.02 L1282.38 1481.64 L1290.02 1481.64 L1290.02 1485.58 L1270.11 1485.58 L1270.11 1481.64 Z" fill="#000000" fill-rule="evenodd" fill-opacity="1"></path><path clip-path="url(#clip290)" d="M1309.46 1454.1 Q1305.85 1454.1 1304.02 1457.66 Q1302.21 1461.2 1302.21 1468.33 Q1302.21 1475.44 1304.02 1479.01 Q1305.85 1482.55 1309.46 1482.55 Q1313.09 1482.55 1314.9 1479.01 Q1316.73 1475.44 1316.73 1468.33 Q1316.73 1461.2 1314.9 1457.66 Q1313.09 1454.1 1309.46 1454.1 M1309.46 1450.39 Q1315.27 1450.39 1318.33 1455 Q1321.4 1459.58 1321.4 1468.33 Q1321.4 1477.06 1318.33 1481.67 Q1315.27 1486.25 1309.46 1486.25 Q1303.65 1486.25 1300.57 1481.67 Q1297.52 1477.06 1297.52 1468.33 Q1297.52 1459.58 1300.57 1455 Q1303.65 1450.39 1309.46 1450.39 Z" fill="#000000" fill-rule="evenodd" fill-opacity="1"></path><path clip-path="url(#clip290)" d="M1339.62 1454.1 Q1336.01 1454.1 1334.18 1457.66 Q1332.38 1461.2 1332.38 1468.33 Q1332.38 1475.44 1334.18 1479.01 Q1336.01 1482.55 1339.62 1482.55 Q1343.26 1482.55 1345.06 1479.01 Q1346.89 1475.44 1346.89 1468.33 Q1346.89 1461.2 1345.06 1457.66 Q1343.26 1454.1 1339.62 1454.1 M1339.62 1450.39 Q1345.43 1450.39 1348.49 1455 Q1351.57 1459.58 1351.57 1468.33 Q1351.57 1477.06 1348.49 1481.67 Q1345.43 1486.25 1339.62 1486.25 Q1333.81 1486.25 1330.73 1481.67 Q1327.68 1477.06 1327.68 1468.33 Q1327.68 1459.58 1330.73 1455 Q1333.81 1450.39 1339.62 1450.39 Z" fill="#000000" fill-rule="evenodd" fill-opacity="1"></path><path clip-path="url(#clip290)" d="M1369.78 1454.1 Q1366.17 1454.1 1364.34 1457.66 Q1362.54 1461.2 1362.54 1468.33 Q1362.54 1475.44 1364.34 1479.01 Q1366.17 1482.55 1369.78 1482.55 Q1373.42 1482.55 1375.22 1479.01 Q1377.05 1475.44 1377.05 1468.33 Q1377.05 1461.2 1375.22 1457.66 Q1373.42 1454.1 1369.78 1454.1 M1369.78 1450.39 Q1375.59 1450.39 1378.65 1455 Q1381.73 1459.58 1381.73 1468.33 Q1381.73 1477.06 1378.65 1481.67 Q1375.59 1486.25 1369.78 1486.25 Q1363.97 1486.25 1360.9 1481.67 Q1357.84 1477.06 1357.84 1468.33 Q1357.84 1459.58 1360.9 1455 Q1363.97 1450.39 1369.78 1450.39 Z" fill="#000000" fill-rule="evenodd" fill-opacity="1"></path><path clip-path="url(#clip290)" d="M1778.37 1481.64 L1786.01 1481.64 L1786.01 1455.28 L1777.7 1456.95 L1777.7 1452.69 L1785.96 1451.02 L1790.63 1451.02 L1790.63 1481.64 L1798.27 1481.64 L1798.27 1485.58 L1778.37 1485.58 L1778.37 1481.64 Z" fill="#000000" fill-rule="evenodd" fill-opacity="1"></path><path clip-path="url(#clip290)" d="M1807.76 1451.02 L1826.12 1451.02 L1826.12 1454.96 L1812.05 1454.96 L1812.05 1463.43 Q1813.07 1463.08 1814.08 1462.92 Q1815.1 1462.73 1816.12 1462.73 Q1821.91 1462.73 1825.29 1465.9 Q1828.67 1469.08 1828.67 1474.49 Q1828.67 1480.07 1825.19 1483.17 Q1821.72 1486.25 1815.4 1486.25 Q1813.23 1486.25 1810.96 1485.88 Q1808.71 1485.51 1806.31 1484.77 L1806.31 1480.07 Q1808.39 1481.2 1810.61 1481.76 Q1812.83 1482.32 1815.31 1482.32 Q1819.32 1482.32 1821.65 1480.21 Q1823.99 1478.1 1823.99 1474.49 Q1823.99 1470.88 1821.65 1468.77 Q1819.32 1466.67 1815.31 1466.67 Q1813.44 1466.67 1811.56 1467.08 Q1809.71 1467.5 1807.76 1468.38 L1807.76 1451.02 Z" fill="#000000" fill-rule="evenodd" fill-opacity="1"></path><path clip-path="url(#clip290)" d="M1847.88 1454.1 Q1844.27 1454.1 1842.44 1457.66 Q1840.63 1461.2 1840.63 1468.33 Q1840.63 1475.44 1842.44 1479.01 Q1844.27 1482.55 1847.88 1482.55 Q1851.51 1482.55 1853.32 1479.01 Q1855.15 1475.44 1855.15 1468.33 Q1855.15 1461.2 1853.32 1457.66 Q1851.51 1454.1 1847.88 1454.1 M1847.88 1450.39 Q1853.69 1450.39 1856.75 1455 Q1859.82 1459.58 1859.82 1468.33 Q1859.82 1477.06 1856.75 1481.67 Q1853.69 1486.25 1847.88 1486.25 Q1842.07 1486.25 1838.99 1481.67 Q1835.94 1477.06 1835.94 1468.33 Q1835.94 1459.58 1838.99 1455 Q1842.07 1450.39 1847.88 1450.39 Z" fill="#000000" fill-rule="evenodd" fill-opacity="1"></path><path clip-path="url(#clip290)" d="M1878.04 1454.1 Q1874.43 1454.1 1872.6 1457.66 Q1870.8 1461.2 1870.8 1468.33 Q1870.8 1475.44 1872.6 1479.01 Q1874.43 1482.55 1878.04 1482.55 Q1881.68 1482.55 1883.48 1479.01 Q1885.31 1475.44 1885.31 1468.33 Q1885.31 1461.2 1883.48 1457.66 Q1881.68 1454.1 1878.04 1454.1 M1878.04 1450.39 Q1883.85 1450.39 1886.91 1455 Q1889.99 1459.58 1889.99 1468.33 Q1889.99 1477.06 1886.91 1481.67 Q1883.85 1486.25 1878.04 1486.25 Q1872.23 1486.25 1869.15 1481.67 Q1866.1 1477.06 1866.1 1468.33 Q1866.1 1459.58 1869.15 1455 Q1872.23 1450.39 1878.04 1450.39 Z" fill="#000000" fill-rule="evenodd" fill-opacity="1"></path><path clip-path="url(#clip290)" d="M2290.71 1481.64 L2307.03 1481.64 L2307.03 1485.58 L2285.08 1485.58 L2285.08 1481.64 Q2287.75 1478.89 2292.33 1474.26 Q2296.94 1469.61 2298.12 1468.27 Q2300.36 1465.74 2301.24 1464.01 Q2302.15 1462.25 2302.15 1460.56 Q2302.15 1457.8 2300.2 1456.07 Q2298.28 1454.33 2295.18 1454.33 Q2292.98 1454.33 2290.52 1455.09 Q2288.09 1455.86 2285.32 1457.41 L2285.32 1452.69 Q2288.14 1451.55 2290.59 1450.97 Q2293.05 1450.39 2295.08 1450.39 Q2300.46 1450.39 2303.65 1453.08 Q2306.84 1455.77 2306.84 1460.26 Q2306.84 1462.39 2306.03 1464.31 Q2305.25 1466.2 2303.14 1468.8 Q2302.56 1469.47 2299.46 1472.69 Q2296.36 1475.88 2290.71 1481.64 Z" fill="#000000" fill-rule="evenodd" fill-opacity="1"></path><path clip-path="url(#clip290)" d="M2326.84 1454.1 Q2323.23 1454.1 2321.4 1457.66 Q2319.6 1461.2 2319.6 1468.33 Q2319.6 1475.44 2321.4 1479.01 Q2323.23 1482.55 2326.84 1482.55 Q2330.48 1482.55 2332.28 1479.01 Q2334.11 1475.44 2334.11 1468.33 Q2334.11 1461.2 2332.28 1457.66 Q2330.48 1454.1 2326.84 1454.1 M2326.84 1450.39 Q2332.65 1450.39 2335.71 1455 Q2338.79 1459.58 2338.79 1468.33 Q2338.79 1477.06 2335.71 1481.67 Q2332.65 1486.25 2326.84 1486.25 Q2321.03 1486.25 2317.96 1481.67 Q2314.9 1477.06 2314.9 1468.33 Q2314.9 1459.58 2317.96 1455 Q2321.03 1450.39 2326.84 1450.39 Z" fill="#000000" fill-rule="evenodd" fill-opacity="1"></path><path clip-path="url(#clip290)" d="M2357.01 1454.1 Q2353.39 1454.1 2351.57 1457.66 Q2349.76 1461.2 2349.76 1468.33 Q2349.76 1475.44 2351.57 1479.01 Q2353.39 1482.55 2357.01 1482.55 Q2360.64 1482.55 2362.45 1479.01 Q2364.27 1475.44 2364.27 1468.33 Q2364.27 1461.2 2362.45 1457.66 Q2360.64 1454.1 2357.01 1454.1 M2357.01 1450.39 Q2362.82 1450.39 2365.87 1455 Q2368.95 1459.58 2368.95 1468.33 Q2368.95 1477.06 2365.87 1481.67 Q2362.82 1486.25 2357.01 1486.25 Q2351.2 1486.25 2348.12 1481.67 Q2345.06 1477.06 2345.06 1468.33 Q2345.06 1459.58 2348.12 1455 Q2351.2 1450.39 2357.01 1450.39 Z" fill="#000000" fill-rule="evenodd" fill-opacity="1"></path><path clip-path="url(#clip290)" d="M2387.17 1454.1 Q2383.56 1454.1 2381.73 1457.66 Q2379.92 1461.2 2379.92 1468.33 Q2379.92 1475.44 2381.73 1479.01 Q2383.56 1482.55 2387.17 1482.55 Q2390.8 1482.55 2392.61 1479.01 Q2394.44 1475.44 2394.44 1468.33 Q2394.44 1461.2 2392.61 1457.66 Q2390.8 1454.1 2387.17 1454.1 M2387.17 1450.39 Q2392.98 1450.39 2396.03 1455 Q2399.11 1459.58 2399.11 1468.33 Q2399.11 1477.06 2396.03 1481.67 Q2392.98 1486.25 2387.17 1486.25 Q2381.36 1486.25 2378.28 1481.67 Q2375.22 1477.06 2375.22 1468.33 Q2375.22 1459.58 2378.28 1455 Q2381.36 1450.39 2387.17 1450.39 Z" fill="#000000" fill-rule="evenodd" fill-opacity="1"></path><path clip-path="url(#clip290)" d="M1240.31 1522.27 L1240.31 1532.4 L1252.37 1532.4 L1252.37 1536.95 L1240.31 1536.95 L1240.31 1556.3 Q1240.31 1560.66 1241.49 1561.9 Q1242.7 1563.14 1246.36 1563.14 L1252.37 1563.14 L1252.37 1568.04 L1246.36 1568.04 Q1239.58 1568.04 1237 1565.53 Q1234.42 1562.98 1234.42 1556.3 L1234.42 1536.95 L1230.12 1536.95 L1230.12 1532.4 L1234.42 1532.4 L1234.42 1522.27 L1240.31 1522.27 Z" fill="#000000" fill-rule="evenodd" fill-opacity="1"></path><path clip-path="url(#clip290)" d="M1260.07 1532.4 L1265.93 1532.4 L1265.93 1568.04 L1260.07 1568.04 L1260.07 1532.4 M1260.07 1518.52 L1265.93 1518.52 L1265.93 1525.93 L1260.07 1525.93 L1260.07 1518.52 Z" fill="#000000" fill-rule="evenodd" fill-opacity="1"></path><path clip-path="url(#clip290)" d="M1305.94 1539.24 Q1308.14 1535.29 1311.19 1533.41 Q1314.25 1531.54 1318.38 1531.54 Q1323.95 1531.54 1326.98 1535.45 Q1330 1539.33 1330 1546.53 L1330 1568.04 L1324.11 1568.04 L1324.11 1546.72 Q1324.11 1541.59 1322.3 1539.11 Q1320.48 1536.63 1316.76 1536.63 Q1312.21 1536.63 1309.57 1539.65 Q1306.93 1542.68 1306.93 1547.9 L1306.93 1568.04 L1301.04 1568.04 L1301.04 1546.72 Q1301.04 1541.56 1299.22 1539.11 Q1297.41 1536.63 1293.62 1536.63 Q1289.13 1536.63 1286.49 1539.68 Q1283.85 1542.71 1283.85 1547.9 L1283.85 1568.04 L1277.96 1568.04 L1277.96 1532.4 L1283.85 1532.4 L1283.85 1537.93 Q1285.86 1534.66 1288.66 1533.1 Q1291.46 1531.54 1295.31 1531.54 Q1299.19 1531.54 1301.9 1533.51 Q1304.63 1535.48 1305.94 1539.24 Z" fill="#000000" fill-rule="evenodd" fill-opacity="1"></path><path clip-path="url(#clip290)" d="M1372.17 1548.76 L1372.17 1551.62 L1345.25 1551.62 Q1345.63 1557.67 1348.88 1560.85 Q1352.15 1564 1357.98 1564 Q1361.35 1564 1364.5 1563.17 Q1367.69 1562.35 1370.81 1560.69 L1370.81 1566.23 Q1367.65 1567.57 1364.34 1568.27 Q1361.03 1568.97 1357.63 1568.97 Q1349.1 1568.97 1344.1 1564 Q1339.14 1559.04 1339.14 1550.57 Q1339.14 1541.82 1343.85 1536.69 Q1348.59 1531.54 1356.61 1531.54 Q1363.8 1531.54 1367.97 1536.18 Q1372.17 1540.8 1372.17 1548.76 M1366.32 1547.04 Q1366.25 1542.23 1363.61 1539.37 Q1361 1536.5 1356.67 1536.5 Q1351.77 1536.5 1348.81 1539.27 Q1345.88 1542.04 1345.44 1547.07 L1366.32 1547.04 Z" fill="#000000" fill-rule="evenodd" fill-opacity="1"></path><polyline clip-path="url(#clip292)" style="stroke:#000000; stroke-linecap:round; stroke-linejoin:round; stroke-width:2; stroke-opacity:0.1; fill:none" points="249.542,1166.2 2352.76,1166.2 "></polyline>
<polyline clip-path="url(#clip292)" style="stroke:#000000; stroke-linecap:round; stroke-linejoin:round; stroke-width:2; stroke-opacity:0.1; fill:none" points="249.542,852.005 2352.76,852.005 "></polyline>
<polyline clip-path="url(#clip292)" style="stroke:#000000; stroke-linecap:round; stroke-linejoin:round; stroke-width:2; stroke-opacity:0.1; fill:none" points="249.542,537.806 2352.76,537.806 "></polyline>
<polyline clip-path="url(#clip292)" style="stroke:#000000; stroke-linecap:round; stroke-linejoin:round; stroke-width:2; stroke-opacity:0.1; fill:none" points="249.542,223.606 2352.76,223.606 "></polyline>
<polyline clip-path="url(#clip290)" style="stroke:#000000; stroke-linecap:round; stroke-linejoin:round; stroke-width:4; stroke-opacity:1; fill:none" points="249.542,1423.18 249.542,47.2441 "></polyline>
<polyline clip-path="url(#clip290)" style="stroke:#000000; stroke-linecap:round; stroke-linejoin:round; stroke-width:4; stroke-opacity:1; fill:none" points="249.542,1166.2 268.44,1166.2 "></polyline>
<polyline clip-path="url(#clip290)" style="stroke:#000000; stroke-linecap:round; stroke-linejoin:round; stroke-width:4; stroke-opacity:1; fill:none" points="249.542,852.005 268.44,852.005 "></polyline>
<polyline clip-path="url(#clip290)" style="stroke:#000000; stroke-linecap:round; stroke-linejoin:round; stroke-width:4; stroke-opacity:1; fill:none" points="249.542,537.806 268.44,537.806 "></polyline>
<polyline clip-path="url(#clip290)" style="stroke:#000000; stroke-linecap:round; stroke-linejoin:round; stroke-width:4; stroke-opacity:1; fill:none" points="249.542,223.606 268.44,223.606 "></polyline>
<path clip-path="url(#clip290)" d="M127.2 1152 Q123.589 1152 121.76 1155.57 Q119.955 1159.11 119.955 1166.24 Q119.955 1173.35 121.76 1176.91 Q123.589 1180.45 127.2 1180.45 Q130.834 1180.45 132.64 1176.91 Q134.468 1173.35 134.468 1166.24 Q134.468 1159.11 132.64 1155.57 Q130.834 1152 127.2 1152 M127.2 1148.3 Q133.01 1148.3 136.066 1152.91 Q139.144 1157.49 139.144 1166.24 Q139.144 1174.97 136.066 1179.57 Q133.01 1184.16 127.2 1184.16 Q121.39 1184.16 118.311 1179.57 Q115.256 1174.97 115.256 1166.24 Q115.256 1157.49 118.311 1152.91 Q121.39 1148.3 127.2 1148.3 Z" fill="#000000" fill-rule="evenodd" fill-opacity="1"></path><path clip-path="url(#clip290)" d="M147.362 1177.6 L152.246 1177.6 L152.246 1183.48 L147.362 1183.48 L147.362 1177.6 Z" fill="#000000" fill-rule="evenodd" fill-opacity="1"></path><path clip-path="url(#clip290)" d="M172.431 1152 Q168.82 1152 166.991 1155.57 Q165.186 1159.11 165.186 1166.24 Q165.186 1173.35 166.991 1176.91 Q168.82 1180.45 172.431 1180.45 Q176.065 1180.45 177.871 1176.91 Q179.7 1173.35 179.7 1166.24 Q179.7 1159.11 177.871 1155.57 Q176.065 1152 172.431 1152 M172.431 1148.3 Q178.241 1148.3 181.297 1152.91 Q184.376 1157.49 184.376 1166.24 Q184.376 1174.97 181.297 1179.57 Q178.241 1184.16 172.431 1184.16 Q166.621 1184.16 163.542 1179.57 Q160.487 1174.97 160.487 1166.24 Q160.487 1157.49 163.542 1152.91 Q166.621 1148.3 172.431 1148.3 Z" fill="#000000" fill-rule="evenodd" fill-opacity="1"></path><path clip-path="url(#clip290)" d="M192.639 1148.92 L210.996 1148.92 L210.996 1152.86 L196.922 1152.86 L196.922 1161.33 Q197.94 1160.98 198.959 1160.82 Q199.977 1160.64 200.996 1160.64 Q206.783 1160.64 210.162 1163.81 Q213.542 1166.98 213.542 1172.4 Q213.542 1177.98 210.07 1181.08 Q206.598 1184.16 200.278 1184.16 Q198.102 1184.16 195.834 1183.79 Q193.588 1183.42 191.181 1182.67 L191.181 1177.98 Q193.264 1179.11 195.487 1179.67 Q197.709 1180.22 200.186 1180.22 Q204.19 1180.22 206.528 1178.11 Q208.866 1176.01 208.866 1172.4 Q208.866 1168.79 206.528 1166.68 Q204.19 1164.57 200.186 1164.57 Q198.311 1164.57 196.436 1164.99 Q194.584 1165.41 192.639 1166.29 L192.639 1148.92 Z" fill="#000000" fill-rule="evenodd" fill-opacity="1"></path><path clip-path="url(#clip290)" d="M126.205 837.804 Q122.593 837.804 120.765 841.369 Q118.959 844.91 118.959 852.04 Q118.959 859.146 120.765 862.711 Q122.593 866.253 126.205 866.253 Q129.839 866.253 131.644 862.711 Q133.473 859.146 133.473 852.04 Q133.473 844.91 131.644 841.369 Q129.839 837.804 126.205 837.804 M126.205 834.1 Q132.015 834.1 135.07 838.707 Q138.149 843.29 138.149 852.04 Q138.149 860.767 135.07 865.373 Q132.015 869.956 126.205 869.956 Q120.394 869.956 117.316 865.373 Q114.26 860.767 114.26 852.04 Q114.26 843.29 117.316 838.707 Q120.394 834.1 126.205 834.1 Z" fill="#000000" fill-rule="evenodd" fill-opacity="1"></path><path clip-path="url(#clip290)" d="M146.366 863.406 L151.251 863.406 L151.251 869.285 L146.366 869.285 L146.366 863.406 Z" fill="#000000" fill-rule="evenodd" fill-opacity="1"></path><path clip-path="url(#clip290)" d="M162.246 865.35 L169.885 865.35 L169.885 838.984 L161.575 840.651 L161.575 836.392 L169.839 834.725 L174.514 834.725 L174.514 865.35 L182.153 865.35 L182.153 869.285 L162.246 869.285 L162.246 865.35 Z" fill="#000000" fill-rule="evenodd" fill-opacity="1"></path><path clip-path="url(#clip290)" d="M201.598 837.804 Q197.987 837.804 196.158 841.369 Q194.352 844.91 194.352 852.04 Q194.352 859.146 196.158 862.711 Q197.987 866.253 201.598 866.253 Q205.232 866.253 207.037 862.711 Q208.866 859.146 208.866 852.04 Q208.866 844.91 207.037 841.369 Q205.232 837.804 201.598 837.804 M201.598 834.1 Q207.408 834.1 210.463 838.707 Q213.542 843.29 213.542 852.04 Q213.542 860.767 210.463 865.373 Q207.408 869.956 201.598 869.956 Q195.787 869.956 192.709 865.373 Q189.653 860.767 189.653 852.04 Q189.653 843.29 192.709 838.707 Q195.787 834.1 201.598 834.1 Z" fill="#000000" fill-rule="evenodd" fill-opacity="1"></path><path clip-path="url(#clip290)" d="M127.2 523.604 Q123.589 523.604 121.76 527.169 Q119.955 530.711 119.955 537.84 Q119.955 544.947 121.76 548.512 Q123.589 552.053 127.2 552.053 Q130.834 552.053 132.64 548.512 Q134.468 544.947 134.468 537.84 Q134.468 530.711 132.64 527.169 Q130.834 523.604 127.2 523.604 M127.2 519.901 Q133.01 519.901 136.066 524.507 Q139.144 529.09 139.144 537.84 Q139.144 546.567 136.066 551.174 Q133.01 555.757 127.2 555.757 Q121.39 555.757 118.311 551.174 Q115.256 546.567 115.256 537.84 Q115.256 529.09 118.311 524.507 Q121.39 519.901 127.2 519.901 Z" fill="#000000" fill-rule="evenodd" fill-opacity="1"></path><path clip-path="url(#clip290)" d="M147.362 549.206 L152.246 549.206 L152.246 555.086 L147.362 555.086 L147.362 549.206 Z" fill="#000000" fill-rule="evenodd" fill-opacity="1"></path><path clip-path="url(#clip290)" d="M163.241 551.151 L170.88 551.151 L170.88 524.785 L162.57 526.452 L162.57 522.192 L170.834 520.526 L175.51 520.526 L175.51 551.151 L183.149 551.151 L183.149 555.086 L163.241 555.086 L163.241 551.151 Z" fill="#000000" fill-rule="evenodd" fill-opacity="1"></path><path clip-path="url(#clip290)" d="M192.639 520.526 L210.996 520.526 L210.996 524.461 L196.922 524.461 L196.922 532.933 Q197.94 532.586 198.959 532.424 Q199.977 532.239 200.996 532.239 Q206.783 532.239 210.162 535.41 Q213.542 538.581 213.542 543.998 Q213.542 549.576 210.07 552.678 Q206.598 555.757 200.278 555.757 Q198.102 555.757 195.834 555.387 Q193.588 555.016 191.181 554.276 L191.181 549.576 Q193.264 550.711 195.487 551.266 Q197.709 551.822 200.186 551.822 Q204.19 551.822 206.528 549.715 Q208.866 547.609 208.866 543.998 Q208.866 540.387 206.528 538.28 Q204.19 536.174 200.186 536.174 Q198.311 536.174 196.436 536.59 Q194.584 537.007 192.639 537.887 L192.639 520.526 Z" fill="#000000" fill-rule="evenodd" fill-opacity="1"></path><path clip-path="url(#clip290)" d="M126.205 209.405 Q122.593 209.405 120.765 212.97 Q118.959 216.511 118.959 223.641 Q118.959 230.747 120.765 234.312 Q122.593 237.854 126.205 237.854 Q129.839 237.854 131.644 234.312 Q133.473 230.747 133.473 223.641 Q133.473 216.511 131.644 212.97 Q129.839 209.405 126.205 209.405 M126.205 205.701 Q132.015 205.701 135.07 210.308 Q138.149 214.891 138.149 223.641 Q138.149 232.368 135.07 236.974 Q132.015 241.558 126.205 241.558 Q120.394 241.558 117.316 236.974 Q114.26 232.368 114.26 223.641 Q114.26 214.891 117.316 210.308 Q120.394 205.701 126.205 205.701 Z" fill="#000000" fill-rule="evenodd" fill-opacity="1"></path><path clip-path="url(#clip290)" d="M146.366 235.007 L151.251 235.007 L151.251 240.886 L146.366 240.886 L146.366 235.007 Z" fill="#000000" fill-rule="evenodd" fill-opacity="1"></path><path clip-path="url(#clip290)" d="M165.464 236.951 L181.783 236.951 L181.783 240.886 L159.839 240.886 L159.839 236.951 Q162.501 234.197 167.084 229.567 Q171.69 224.914 172.871 223.572 Q175.116 221.048 175.996 219.312 Q176.899 217.553 176.899 215.863 Q176.899 213.109 174.954 211.373 Q173.033 209.636 169.931 209.636 Q167.732 209.636 165.278 210.4 Q162.848 211.164 160.07 212.715 L160.07 207.993 Q162.894 206.859 165.348 206.28 Q167.802 205.701 169.839 205.701 Q175.209 205.701 178.403 208.386 Q181.598 211.072 181.598 215.562 Q181.598 217.692 180.788 219.613 Q180.001 221.511 177.894 224.104 Q177.315 224.775 174.214 227.993 Q171.112 231.187 165.464 236.951 Z" fill="#000000" fill-rule="evenodd" fill-opacity="1"></path><path clip-path="url(#clip290)" d="M201.598 209.405 Q197.987 209.405 196.158 212.97 Q194.352 216.511 194.352 223.641 Q194.352 230.747 196.158 234.312 Q197.987 237.854 201.598 237.854 Q205.232 237.854 207.037 234.312 Q208.866 230.747 208.866 223.641 Q208.866 216.511 207.037 212.97 Q205.232 209.405 201.598 209.405 M201.598 205.701 Q207.408 205.701 210.463 210.308 Q213.542 214.891 213.542 223.641 Q213.542 232.368 210.463 236.974 Q207.408 241.558 201.598 241.558 Q195.787 241.558 192.709 236.974 Q189.653 232.368 189.653 223.641 Q189.653 214.891 192.709 210.308 Q195.787 205.701 201.598 205.701 Z" fill="#000000" fill-rule="evenodd" fill-opacity="1"></path><path clip-path="url(#clip290)" d="M21.7677 874.701 L58.7206 874.701 L58.7206 866.934 Q58.7206 857.099 54.2646 852.548 Q49.8086 847.965 40.1964 847.965 Q30.6479 847.965 26.2237 852.548 Q21.7677 857.099 21.7677 866.934 L21.7677 874.701 M16.4842 881.13 L16.4842 867.921 Q16.4842 854.107 22.2451 847.646 Q27.9743 841.185 40.1964 841.185 Q52.4822 841.185 58.2432 847.678 Q64.0042 854.171 64.0042 867.921 L64.0042 881.13 L16.4842 881.13 Z" fill="#000000" fill-rule="evenodd" fill-opacity="1"></path><path clip-path="url(#clip290)" d="M44.7161 800.699 L47.5806 800.699 L47.5806 827.626 Q53.6281 827.244 56.8109 823.998 Q59.9619 820.719 59.9619 814.895 Q59.9619 811.521 59.1344 808.37 Q58.3069 805.187 56.6518 802.068 L62.1899 802.068 Q63.5267 805.219 64.227 808.529 Q64.9272 811.839 64.9272 815.245 Q64.9272 823.775 59.9619 828.772 Q54.9967 833.737 46.5303 833.737 Q37.7774 833.737 32.6531 829.027 Q27.4968 824.284 27.4968 816.263 Q27.4968 809.07 32.1438 804.901 Q36.7589 800.699 44.7161 800.699 M42.9973 806.556 Q38.1912 806.619 35.3266 809.261 Q32.4621 811.871 32.4621 816.2 Q32.4621 821.101 35.2312 824.061 Q38.0002 826.99 43.0292 827.435 L42.9973 806.556 Z" fill="#000000" fill-rule="evenodd" fill-opacity="1"></path><path clip-path="url(#clip290)" d="M42.4881 761.455 L64.0042 761.455 L64.0042 767.311 L42.679 767.311 Q37.6183 767.311 35.1038 769.284 Q32.5894 771.258 32.5894 775.205 Q32.5894 779.947 35.6131 782.684 Q38.6368 785.421 43.8567 785.421 L64.0042 785.421 L64.0042 791.31 L28.3562 791.31 L28.3562 785.421 L33.8944 785.421 Q30.6797 783.321 29.0883 780.488 Q27.4968 777.623 27.4968 773.9 Q27.4968 767.757 31.3163 764.606 Q35.1038 761.455 42.4881 761.455 Z" fill="#000000" fill-rule="evenodd" fill-opacity="1"></path><path clip-path="url(#clip290)" d="M29.4065 727.048 L34.9447 727.048 Q33.6716 729.531 33.035 732.204 Q32.3984 734.878 32.3984 737.742 Q32.3984 742.103 33.7352 744.299 Q35.072 746.463 37.7456 746.463 Q39.7826 746.463 40.9603 744.904 Q42.1061 743.344 43.1565 738.634 L43.6021 736.628 Q44.9389 730.39 47.3897 727.78 Q49.8086 725.138 54.1691 725.138 Q59.1344 725.138 62.0308 729.085 Q64.9272 733 64.9272 739.875 Q64.9272 742.739 64.3543 745.859 Q63.8132 748.946 62.6992 752.383 L56.6518 752.383 Q58.3387 749.137 59.198 745.986 Q60.0256 742.835 60.0256 739.748 Q60.0256 735.61 58.6251 733.382 Q57.1929 731.154 54.6147 731.154 Q52.2276 731.154 50.9545 732.777 Q49.6813 734.369 48.5037 739.811 L48.0262 741.848 Q46.8804 747.291 44.5251 749.71 Q42.138 752.129 38.0002 752.129 Q32.9713 752.129 30.2341 748.564 Q27.4968 744.999 27.4968 738.443 Q27.4968 735.196 27.9743 732.331 Q28.4517 729.467 29.4065 727.048 Z" fill="#000000" fill-rule="evenodd" fill-opacity="1"></path><path clip-path="url(#clip290)" d="M28.3562 715.812 L28.3562 709.956 L64.0042 709.956 L64.0042 715.812 L28.3562 715.812 M14.479 715.812 L14.479 709.956 L21.895 709.956 L21.895 715.812 L14.479 715.812 Z" fill="#000000" fill-rule="evenodd" fill-opacity="1"></path><path clip-path="url(#clip290)" d="M18.2347 691.909 L28.3562 691.909 L28.3562 679.846 L32.9077 679.846 L32.9077 691.909 L52.2594 691.909 Q56.6199 691.909 57.8613 690.732 Q59.1026 689.522 59.1026 685.862 L59.1026 679.846 L64.0042 679.846 L64.0042 685.862 Q64.0042 692.641 61.4897 695.219 Q58.9434 697.798 52.2594 697.798 L32.9077 697.798 L32.9077 702.094 L28.3562 702.094 L28.3562 697.798 L18.2347 697.798 L18.2347 691.909 Z" fill="#000000" fill-rule="evenodd" fill-opacity="1"></path><path clip-path="url(#clip290)" d="M28.3562 672.144 L28.3562 666.287 L64.0042 666.287 L64.0042 672.144 L28.3562 672.144 M14.479 672.144 L14.479 666.287 L21.895 666.287 L21.895 672.144 L14.479 672.144 Z" fill="#000000" fill-rule="evenodd" fill-opacity="1"></path><path clip-path="url(#clip290)" d="M44.7161 623.542 L47.5806 623.542 L47.5806 650.468 Q53.6281 650.087 56.8109 646.84 Q59.9619 643.562 59.9619 637.737 Q59.9619 634.363 59.1344 631.212 Q58.3069 628.029 56.6518 624.91 L62.1899 624.91 Q63.5267 628.061 64.227 631.371 Q64.9272 634.682 64.9272 638.087 Q64.9272 646.617 59.9619 651.614 Q54.9967 656.58 46.5303 656.58 Q37.7774 656.58 32.6531 651.869 Q27.4968 647.127 27.4968 639.106 Q27.4968 631.912 32.1438 627.743 Q36.7589 623.542 44.7161 623.542 M42.9973 629.398 Q38.1912 629.462 35.3266 632.103 Q32.4621 634.713 32.4621 639.042 Q32.4621 643.944 35.2312 646.904 Q38.0002 649.832 43.0292 650.278 L42.9973 629.398 Z" fill="#000000" fill-rule="evenodd" fill-opacity="1"></path><path clip-path="url(#clip290)" d="M29.4065 591.204 L34.9447 591.204 Q33.6716 593.686 33.035 596.36 Q32.3984 599.034 32.3984 601.898 Q32.3984 606.259 33.7352 608.455 Q35.072 610.619 37.7456 610.619 Q39.7826 610.619 40.9603 609.06 Q42.1061 607.5 43.1565 602.789 L43.6021 600.784 Q44.9389 594.546 47.3897 591.936 Q49.8086 589.294 54.1691 589.294 Q59.1344 589.294 62.0308 593.241 Q64.9272 597.156 64.9272 604.031 Q64.9272 606.895 64.3543 610.014 Q63.8132 613.102 62.6992 616.539 L56.6518 616.539 Q58.3387 613.293 59.198 610.142 Q60.0256 606.991 60.0256 603.903 Q60.0256 599.766 58.6251 597.538 Q57.1929 595.31 54.6147 595.31 Q52.2276 595.31 50.9545 596.933 Q49.6813 598.524 48.5037 603.967 L48.0262 606.004 Q46.8804 611.447 44.5251 613.866 Q42.138 616.285 38.0002 616.285 Q32.9713 616.285 30.2341 612.72 Q27.4968 609.155 27.4968 602.598 Q27.4968 599.352 27.9743 596.487 Q28.4517 593.623 29.4065 591.204 Z" fill="#000000" fill-rule="evenodd" fill-opacity="1"></path><polyline clip-path="url(#clip292)" style="stroke:#077d10; stroke-linecap:round; stroke-linejoin:round; stroke-width:6; stroke-opacity:1; fill:none" points="309.067,474.966 309.185,481.977 309.421,493.196 309.727,503.336 310.124,511.321 310.617,515.987 311.228,517.032 311.972,514.692 312.875,509.708 313.963,503.182 315.262,496.363 316.81,490.392 318.665,486.089 320.919,483.964 323.672,484.267 326.935,486.864 330.307,490.714 333.06,494.188 335.352,497.365 337.445,500.396 339.53,503.381 341.705,506.454 343.995,509.655 346.372,512.943 348.784,516.24 351.185,519.485 353.557,522.655 355.901,525.753 358.229,528.795 360.555,531.796 362.886,534.765 367.563,540.664 373.654,548.042 385.57,561.813 404.909,582.344 426.187,602.576 455.311,626.757 487.511,649.435 529.594,673.792 577.117,695.553 638.703,716.912 710.73,734.817 803.627,750.373 915.229,762.018 1058.07,770.545 1237.4,776.013 1477.17,779.237 1805.51,780.791 2293.23,781.358 "></polyline>
<polyline clip-path="url(#clip292)" style="stroke:#82c15f; stroke-linecap:round; stroke-linejoin:round; stroke-width:6; stroke-opacity:1; fill:none" points="309.067,474.966 309.185,481.957 309.421,493.258 309.727,503.657 310.124,512.09 310.617,517.332 311.228,518.987 311.972,517.172 312.875,512.54 313.963,506.144 315.262,499.233 316.81,492.974 318.665,488.211 320.919,485.455 323.672,484.944 326.935,486.558 330.307,489.397 333.06,492.058 335.352,494.569 337.445,497.002 339.53,499.401 341.705,501.872 343.995,504.452 346.372,507.106 348.784,509.773 351.185,512.403 353.557,514.976 355.901,517.496 358.229,519.975 360.555,522.424 362.886,524.85 367.563,529.691 373.654,535.747 385.57,547.111 404.909,564.181 426.187,581.151 455.311,601.621 487.511,620.997 529.594,641.992 577.117,660.901 638.703,679.586 710.73,695.328 803.627,709.043 915.229,719.31 1058.07,726.804 1237.4,731.574 1477.17,734.35 1805.51,735.661 2293.23,736.12 "></polyline>
<polyline clip-path="url(#clip292)" style="stroke:#93d8a7; stroke-linecap:round; stroke-linejoin:round; stroke-width:6; stroke-opacity:1; fill:none" points="309.067,474.966 309.185,481.871 309.421,493.119 309.727,503.602 310.124,512.262 310.617,517.82 311.228,519.778 311.972,518.123 312.875,513.384 313.963,506.527 315.262,498.756 316.81,491.229 318.665,484.769 320.919,479.842 323.672,476.627 326.935,475.037 330.307,474.604 333.06,474.634 335.352,474.988 337.445,475.479 339.53,475.967 341.705,476.47 343.995,477.004 346.372,477.564 348.784,478.138 351.185,478.714 353.557,479.288 355.901,479.86 358.229,480.43 360.555,481 362.886,481.569 367.563,482.762 373.654,484.214 385.57,487.029 404.909,491.412 426.187,495.917 455.311,501.474 487.511,506.756 529.594,512.336 577.117,517.013 638.703,520.983 710.73,523.413 803.627,524.313 915.229,523.65 1058.07,521.831 1237.4,519.542 1477.17,517.386 1805.51,515.901 2293.23,515.197 "></polyline>
<polyline clip-path="url(#clip292)" style="stroke:#66b0d9; stroke-linecap:round; stroke-linejoin:round; stroke-width:6; stroke-opacity:1; fill:none" points="309.067,474.966 309.185,481.761 309.421,492.909 309.727,503.423 310.124,512.262 310.617,518.103 311.228,520.356 311.972,518.878 312.875,514.062 313.963,506.76 315.262,498.097 316.81,489.18 318.665,480.785 320.919,473.304 323.672,466.835 326.935,461.329 330.307,456.853 333.06,453.605 335.352,451.258 337.445,449.306 339.53,447.382 341.705,445.388 343.995,443.317 346.372,441.202 348.784,439.088 351.185,437.017 353.557,435.004 355.901,433.047 358.229,431.131 360.555,429.242 362.886,427.374 367.563,423.758 373.654,419.094 385.57,410.432 404.909,397.501 426.187,384.721 455.311,369.341 487.511,354.733 529.594,338.714 577.117,323.958 638.703,308.867 710.73,295.556 803.627,283.336 915.229,273.712 1058.07,266.442 1237.4,261.816 1477.17,259.283 1805.51,258.269 2293.23,258.017 "></polyline>
<polyline clip-path="url(#clip292)" style="stroke:#2a39ef; stroke-linecap:round; stroke-linejoin:round; stroke-width:6; stroke-opacity:1; fill:none" points="309.067,474.966 309.185,481.664 309.421,492.747 309.727,503.354 310.124,512.479 310.617,518.776 311.228,521.59 311.972,520.664 312.875,516.268 313.963,509.13 315.262,500.273 316.81,490.725 318.665,481.19 320.919,471.981 323.672,463.121 326.935,454.598 330.307,446.921 333.06,441.045 335.352,436.514 337.445,432.579 339.53,428.687 341.705,424.65 343.995,420.442 346.372,416.124 348.784,411.792 351.185,407.529 353.557,403.371 355.901,399.31 358.229,395.321 360.555,391.381 362.886,387.473 367.563,379.824 373.654,370.013 385.57,351.649 404.909,324.024 426.187,296.595 455.311,263.668 487.511,232.84 529.594,200.08 577.117,171.51 638.703,144.637 710.73,123.62 803.627,107.177 915.229,96.6466 1058.07,90.4652 1237.4,87.5816 1477.17,86.4972 1805.51,86.226 2293.23,86.1857 "></polyline>
<polyline clip-path="url(#clip292)" style="stroke:#f5d592; stroke-linecap:round; stroke-linejoin:round; stroke-width:6; stroke-opacity:1; fill:none" points="309.067,852.005 309.185,793.307 309.421,693.252 309.727,591.951 310.124,495.649 310.617,414.393 311.228,352.43 311.972,311.884 312.875,291.16 313.963,286.383 315.262,292.077 316.81,302.728 318.665,314.158 320.919,323.935 323.672,331.051 326.935,335.477 330.307,338.086 333.06,339.847 335.352,340.189 337.445,339.902 339.53,339.784 341.705,339.808 343.995,339.884 346.372,339.979 348.784,340.078 351.185,340.168 353.557,340.233 355.901,340.273 358.229,340.298 360.555,340.319 362.886,340.343 367.563,340.086 373.654,340.223 385.57,340.334 404.909,340.497 426.187,340.627 455.311,340.746 487.511,340.819 529.594,340.858 577.117,340.855 638.703,340.821 710.73,340.769 803.627,340.709 915.229,340.657 1058.07,340.617 1237.4,340.591 1477.17,340.577 1805.51,340.57 2293.23,340.568 "></polyline>
<polyline clip-path="url(#clip292)" style="stroke:#000000; stroke-linecap:round; stroke-linejoin:round; stroke-width:6; stroke-opacity:1; fill:none" points="309.067,852.005 309.185,876.303 309.421,920.358 309.727,969.515 310.124,1022.78 310.617,1076.43 311.228,1128.67 311.972,1177.43 312.875,1221.72 313.963,1260.71 315.262,1294.04 316.81,1321.61 318.665,1343.64 320.919,1360.36 323.672,1371.99 326.935,1378.98 330.307,1382.26 333.06,1383.46 335.352,1383.96 337.445,1384.18 339.53,1384.24 341.705,1384.2 343.995,1384.08 346.372,1383.92 348.784,1383.73 351.185,1383.52 353.557,1383.31 355.901,1383.1 358.229,1382.89 360.555,1382.68 362.886,1382.46 367.563,1382.05 373.654,1381.51 385.57,1380.47 404.909,1378.88 426.187,1377.25 455.311,1375.23 487.511,1373.26 529.594,1371.07 577.117,1369.05 638.703,1367.03 710.73,1365.34 803.627,1363.89 915.229,1362.85 1058.07,1362.13 1237.4,1361.72 1477.17,1361.51 1805.51,1361.42 2293.23,1361.39 "></polyline>
<path clip-path="url(#clip290)" d="M1847.63 1377.32 L2282.65 1377.32 L2282.65 962.595 L1847.63 962.595  Z" fill="#ffffff" fill-rule="evenodd" fill-opacity="1"></path>
<polyline clip-path="url(#clip290)" style="stroke:#000000; stroke-linecap:round; stroke-linejoin:round; stroke-width:4; stroke-opacity:1; fill:none" points="1847.63,1377.32 2282.65,1377.32 2282.65,962.595 1847.63,962.595 1847.63,1377.32 "></polyline>
<polyline clip-path="url(#clip290)" style="stroke:#077d10; stroke-linecap:round; stroke-linejoin:round; stroke-width:6; stroke-opacity:1; fill:none" points="1871,1014.44 2011.21,1014.44 "></polyline>
<path clip-path="url(#clip290)" d="M2056.83 998.29 L2056.83 1002.85 Q2054.17 1001.58 2051.8 1000.95 Q2049.44 1000.33 2047.24 1000.33 Q2043.42 1000.33 2041.34 1001.81 Q2039.28 1003.29 2039.28 1006.02 Q2039.28 1008.31 2040.65 1009.49 Q2042.04 1010.65 2045.88 1011.37 L2048.7 1011.95 Q2053.93 1012.94 2056.41 1015.47 Q2058.91 1017.97 2058.91 1022.18 Q2058.91 1027.2 2055.53 1029.79 Q2052.17 1032.39 2045.67 1032.39 Q2043.22 1032.39 2040.44 1031.83 Q2037.68 1031.28 2034.72 1030.19 L2034.72 1025.37 Q2037.57 1026.97 2040.3 1027.78 Q2043.03 1028.59 2045.67 1028.59 Q2049.67 1028.59 2051.85 1027.02 Q2054.03 1025.44 2054.03 1022.53 Q2054.03 1019.98 2052.45 1018.54 Q2050.9 1017.11 2047.34 1016.39 L2044.49 1015.84 Q2039.26 1014.79 2036.92 1012.57 Q2034.58 1010.35 2034.58 1006.39 Q2034.58 1001.81 2037.8 999.169 Q2041.04 996.53 2046.71 996.53 Q2049.14 996.53 2051.67 996.97 Q2054.19 997.41 2056.83 998.29 Z" fill="#000000" fill-rule="evenodd" fill-opacity="1"></path><path clip-path="url(#clip290)" d="M2070.14 1027.83 L2070.14 1041.58 L2065.85 1041.58 L2065.85 1005.79 L2070.14 1005.79 L2070.14 1009.72 Q2071.48 1007.41 2073.52 1006.3 Q2075.58 1005.16 2078.42 1005.16 Q2083.15 1005.16 2086.09 1008.91 Q2089.05 1012.66 2089.05 1018.78 Q2089.05 1024.89 2086.09 1028.64 Q2083.15 1032.39 2078.42 1032.39 Q2075.58 1032.39 2073.52 1031.28 Q2071.48 1030.14 2070.14 1027.83 M2084.63 1018.78 Q2084.63 1014.08 2082.68 1011.41 Q2080.76 1008.73 2077.38 1008.73 Q2074 1008.73 2072.06 1011.41 Q2070.14 1014.08 2070.14 1018.78 Q2070.14 1023.47 2072.06 1026.16 Q2074 1028.82 2077.38 1028.82 Q2080.76 1028.82 2082.68 1026.16 Q2084.63 1023.47 2084.63 1018.78 Z" fill="#000000" fill-rule="evenodd" fill-opacity="1"></path><path clip-path="url(#clip290)" d="M2097.52 1027.78 L2105.16 1027.78 L2105.16 1001.41 L2096.85 1003.08 L2096.85 998.822 L2105.11 997.155 L2109.79 997.155 L2109.79 1027.78 L2117.43 1027.78 L2117.43 1031.72 L2097.52 1031.72 L2097.52 1027.78 Z" fill="#000000" fill-rule="evenodd" fill-opacity="1"></path><polyline clip-path="url(#clip290)" style="stroke:#82c15f; stroke-linecap:round; stroke-linejoin:round; stroke-width:6; stroke-opacity:1; fill:none" points="1871,1066.28 2011.21,1066.28 "></polyline>
<path clip-path="url(#clip290)" d="M2056.83 1050.13 L2056.83 1054.69 Q2054.17 1053.42 2051.8 1052.79 Q2049.44 1052.17 2047.24 1052.17 Q2043.42 1052.17 2041.34 1053.65 Q2039.28 1055.13 2039.28 1057.86 Q2039.28 1060.15 2040.65 1061.33 Q2042.04 1062.49 2045.88 1063.21 L2048.7 1063.79 Q2053.93 1064.78 2056.41 1067.31 Q2058.91 1069.81 2058.91 1074.02 Q2058.91 1079.04 2055.53 1081.63 Q2052.17 1084.23 2045.67 1084.23 Q2043.22 1084.23 2040.44 1083.67 Q2037.68 1083.12 2034.72 1082.03 L2034.72 1077.21 Q2037.57 1078.81 2040.3 1079.62 Q2043.03 1080.43 2045.67 1080.43 Q2049.67 1080.43 2051.85 1078.86 Q2054.03 1077.28 2054.03 1074.37 Q2054.03 1071.82 2052.45 1070.38 Q2050.9 1068.95 2047.34 1068.23 L2044.49 1067.68 Q2039.26 1066.63 2036.92 1064.41 Q2034.58 1062.19 2034.58 1058.23 Q2034.58 1053.65 2037.8 1051.01 Q2041.04 1048.37 2046.71 1048.37 Q2049.14 1048.37 2051.67 1048.81 Q2054.19 1049.25 2056.83 1050.13 Z" fill="#000000" fill-rule="evenodd" fill-opacity="1"></path><path clip-path="url(#clip290)" d="M2070.14 1079.67 L2070.14 1093.42 L2065.85 1093.42 L2065.85 1057.63 L2070.14 1057.63 L2070.14 1061.56 Q2071.48 1059.25 2073.52 1058.14 Q2075.58 1057 2078.42 1057 Q2083.15 1057 2086.09 1060.75 Q2089.05 1064.5 2089.05 1070.62 Q2089.05 1076.73 2086.09 1080.48 Q2083.15 1084.23 2078.42 1084.23 Q2075.58 1084.23 2073.52 1083.12 Q2071.48 1081.98 2070.14 1079.67 M2084.63 1070.62 Q2084.63 1065.92 2082.68 1063.25 Q2080.76 1060.57 2077.38 1060.57 Q2074 1060.57 2072.06 1063.25 Q2070.14 1065.92 2070.14 1070.62 Q2070.14 1075.31 2072.06 1078 Q2074 1080.66 2077.38 1080.66 Q2080.76 1080.66 2082.68 1078 Q2084.63 1075.31 2084.63 1070.62 Z" fill="#000000" fill-rule="evenodd" fill-opacity="1"></path><path clip-path="url(#clip290)" d="M2100.74 1079.62 L2117.06 1079.62 L2117.06 1083.56 L2095.11 1083.56 L2095.11 1079.62 Q2097.78 1076.87 2102.36 1072.24 Q2106.97 1067.58 2108.15 1066.24 Q2110.39 1063.72 2111.27 1061.98 Q2112.17 1060.22 2112.17 1058.53 Q2112.17 1055.78 2110.23 1054.04 Q2108.31 1052.31 2105.21 1052.31 Q2103.01 1052.31 2100.55 1053.07 Q2098.12 1053.83 2095.35 1055.38 L2095.35 1050.66 Q2098.17 1049.53 2100.62 1048.95 Q2103.08 1048.37 2105.11 1048.37 Q2110.48 1048.37 2113.68 1051.06 Q2116.87 1053.74 2116.87 1058.23 Q2116.87 1060.36 2116.06 1062.28 Q2115.28 1064.18 2113.17 1066.77 Q2112.59 1067.44 2109.49 1070.66 Q2106.39 1073.86 2100.74 1079.62 Z" fill="#000000" fill-rule="evenodd" fill-opacity="1"></path><polyline clip-path="url(#clip290)" style="stroke:#93d8a7; stroke-linecap:round; stroke-linejoin:round; stroke-width:6; stroke-opacity:1; fill:none" points="1871,1118.12 2011.21,1118.12 "></polyline>
<path clip-path="url(#clip290)" d="M2056.83 1101.97 L2056.83 1106.53 Q2054.17 1105.26 2051.8 1104.63 Q2049.44 1104.01 2047.24 1104.01 Q2043.42 1104.01 2041.34 1105.49 Q2039.28 1106.97 2039.28 1109.7 Q2039.28 1111.99 2040.65 1113.17 Q2042.04 1114.33 2045.88 1115.05 L2048.7 1115.63 Q2053.93 1116.62 2056.41 1119.15 Q2058.91 1121.65 2058.91 1125.86 Q2058.91 1130.88 2055.53 1133.47 Q2052.17 1136.07 2045.67 1136.07 Q2043.22 1136.07 2040.44 1135.51 Q2037.68 1134.96 2034.72 1133.87 L2034.72 1129.05 Q2037.57 1130.65 2040.3 1131.46 Q2043.03 1132.27 2045.67 1132.27 Q2049.67 1132.27 2051.85 1130.7 Q2054.03 1129.12 2054.03 1126.21 Q2054.03 1123.66 2052.45 1122.22 Q2050.9 1120.79 2047.34 1120.07 L2044.49 1119.52 Q2039.26 1118.47 2036.92 1116.25 Q2034.58 1114.03 2034.58 1110.07 Q2034.58 1105.49 2037.8 1102.85 Q2041.04 1100.21 2046.71 1100.21 Q2049.14 1100.21 2051.67 1100.65 Q2054.19 1101.09 2056.83 1101.97 Z" fill="#000000" fill-rule="evenodd" fill-opacity="1"></path><path clip-path="url(#clip290)" d="M2070.14 1131.51 L2070.14 1145.26 L2065.85 1145.26 L2065.85 1109.47 L2070.14 1109.47 L2070.14 1113.4 Q2071.48 1111.09 2073.52 1109.98 Q2075.58 1108.84 2078.42 1108.84 Q2083.15 1108.84 2086.09 1112.59 Q2089.05 1116.34 2089.05 1122.46 Q2089.05 1128.57 2086.09 1132.32 Q2083.15 1136.07 2078.42 1136.07 Q2075.58 1136.07 2073.52 1134.96 Q2071.48 1133.82 2070.14 1131.51 M2084.63 1122.46 Q2084.63 1117.76 2082.68 1115.09 Q2080.76 1112.41 2077.38 1112.41 Q2074 1112.41 2072.06 1115.09 Q2070.14 1117.76 2070.14 1122.46 Q2070.14 1127.15 2072.06 1129.84 Q2074 1132.5 2077.38 1132.5 Q2080.76 1132.5 2082.68 1129.84 Q2084.63 1127.15 2084.63 1122.46 Z" fill="#000000" fill-rule="evenodd" fill-opacity="1"></path><path clip-path="url(#clip290)" d="M2110.88 1116.76 Q2114.23 1117.48 2116.11 1119.75 Q2118.01 1122.02 2118.01 1125.35 Q2118.01 1130.46 2114.49 1133.27 Q2110.97 1136.07 2104.49 1136.07 Q2102.31 1136.07 2100 1135.63 Q2097.71 1135.21 2095.25 1134.35 L2095.25 1129.84 Q2097.2 1130.97 2099.51 1131.55 Q2101.83 1132.13 2104.35 1132.13 Q2108.75 1132.13 2111.04 1130.4 Q2113.35 1128.66 2113.35 1125.35 Q2113.35 1122.29 2111.2 1120.58 Q2109.07 1118.84 2105.25 1118.84 L2101.23 1118.84 L2101.23 1115 L2105.44 1115 Q2108.89 1115 2110.72 1113.64 Q2112.54 1112.25 2112.54 1109.65 Q2112.54 1106.99 2110.65 1105.58 Q2108.77 1104.15 2105.25 1104.15 Q2103.33 1104.15 2101.13 1104.56 Q2098.93 1104.98 2096.29 1105.86 L2096.29 1101.69 Q2098.96 1100.95 2101.27 1100.58 Q2103.61 1100.21 2105.67 1100.21 Q2110.99 1100.21 2114.1 1102.64 Q2117.2 1105.05 2117.2 1109.17 Q2117.2 1112.04 2115.55 1114.03 Q2113.91 1116 2110.88 1116.76 Z" fill="#000000" fill-rule="evenodd" fill-opacity="1"></path><polyline clip-path="url(#clip290)" style="stroke:#66b0d9; stroke-linecap:round; stroke-linejoin:round; stroke-width:6; stroke-opacity:1; fill:none" points="1871,1169.96 2011.21,1169.96 "></polyline>
<path clip-path="url(#clip290)" d="M2056.83 1153.81 L2056.83 1158.37 Q2054.17 1157.1 2051.8 1156.47 Q2049.44 1155.85 2047.24 1155.85 Q2043.42 1155.85 2041.34 1157.33 Q2039.28 1158.81 2039.28 1161.54 Q2039.28 1163.83 2040.65 1165.01 Q2042.04 1166.17 2045.88 1166.89 L2048.7 1167.47 Q2053.93 1168.46 2056.41 1170.99 Q2058.91 1173.49 2058.91 1177.7 Q2058.91 1182.72 2055.53 1185.31 Q2052.17 1187.91 2045.67 1187.91 Q2043.22 1187.91 2040.44 1187.35 Q2037.68 1186.8 2034.72 1185.71 L2034.72 1180.89 Q2037.57 1182.49 2040.3 1183.3 Q2043.03 1184.11 2045.67 1184.11 Q2049.67 1184.11 2051.85 1182.54 Q2054.03 1180.96 2054.03 1178.05 Q2054.03 1175.5 2052.45 1174.06 Q2050.9 1172.63 2047.34 1171.91 L2044.49 1171.36 Q2039.26 1170.31 2036.92 1168.09 Q2034.58 1165.87 2034.58 1161.91 Q2034.58 1157.33 2037.8 1154.69 Q2041.04 1152.05 2046.71 1152.05 Q2049.14 1152.05 2051.67 1152.49 Q2054.19 1152.93 2056.83 1153.81 Z" fill="#000000" fill-rule="evenodd" fill-opacity="1"></path><path clip-path="url(#clip290)" d="M2070.14 1183.35 L2070.14 1197.1 L2065.85 1197.1 L2065.85 1161.31 L2070.14 1161.31 L2070.14 1165.24 Q2071.48 1162.93 2073.52 1161.82 Q2075.58 1160.68 2078.42 1160.68 Q2083.15 1160.68 2086.09 1164.43 Q2089.05 1168.18 2089.05 1174.3 Q2089.05 1180.41 2086.09 1184.16 Q2083.15 1187.91 2078.42 1187.91 Q2075.58 1187.91 2073.52 1186.8 Q2071.48 1185.66 2070.14 1183.35 M2084.63 1174.3 Q2084.63 1169.6 2082.68 1166.93 Q2080.76 1164.25 2077.38 1164.25 Q2074 1164.25 2072.06 1166.93 Q2070.14 1169.6 2070.14 1174.3 Q2070.14 1178.99 2072.06 1181.68 Q2074 1184.34 2077.38 1184.34 Q2080.76 1184.34 2082.68 1181.68 Q2084.63 1178.99 2084.63 1174.3 Z" fill="#000000" fill-rule="evenodd" fill-opacity="1"></path><path clip-path="url(#clip290)" d="M2109.56 1156.75 L2097.75 1175.2 L2109.56 1175.2 L2109.56 1156.75 M2108.33 1152.68 L2114.21 1152.68 L2114.21 1175.2 L2119.14 1175.2 L2119.14 1179.09 L2114.21 1179.09 L2114.21 1187.24 L2109.56 1187.24 L2109.56 1179.09 L2093.96 1179.09 L2093.96 1174.57 L2108.33 1152.68 Z" fill="#000000" fill-rule="evenodd" fill-opacity="1"></path><polyline clip-path="url(#clip290)" style="stroke:#2a39ef; stroke-linecap:round; stroke-linejoin:round; stroke-width:6; stroke-opacity:1; fill:none" points="1871,1221.8 2011.21,1221.8 "></polyline>
<path clip-path="url(#clip290)" d="M2056.83 1205.65 L2056.83 1210.21 Q2054.17 1208.94 2051.8 1208.31 Q2049.44 1207.69 2047.24 1207.69 Q2043.42 1207.69 2041.34 1209.17 Q2039.28 1210.65 2039.28 1213.38 Q2039.28 1215.67 2040.65 1216.85 Q2042.04 1218.01 2045.88 1218.73 L2048.7 1219.31 Q2053.93 1220.3 2056.41 1222.83 Q2058.91 1225.33 2058.91 1229.54 Q2058.91 1234.56 2055.53 1237.15 Q2052.17 1239.75 2045.67 1239.75 Q2043.22 1239.75 2040.44 1239.19 Q2037.68 1238.64 2034.72 1237.55 L2034.72 1232.73 Q2037.57 1234.33 2040.3 1235.14 Q2043.03 1235.95 2045.67 1235.95 Q2049.67 1235.95 2051.85 1234.38 Q2054.03 1232.8 2054.03 1229.89 Q2054.03 1227.34 2052.45 1225.9 Q2050.9 1224.47 2047.34 1223.75 L2044.49 1223.2 Q2039.26 1222.15 2036.92 1219.93 Q2034.58 1217.71 2034.58 1213.75 Q2034.58 1209.17 2037.8 1206.53 Q2041.04 1203.89 2046.71 1203.89 Q2049.14 1203.89 2051.67 1204.33 Q2054.19 1204.77 2056.83 1205.65 Z" fill="#000000" fill-rule="evenodd" fill-opacity="1"></path><path clip-path="url(#clip290)" d="M2070.14 1235.19 L2070.14 1248.94 L2065.85 1248.94 L2065.85 1213.15 L2070.14 1213.15 L2070.14 1217.08 Q2071.48 1214.77 2073.52 1213.66 Q2075.58 1212.52 2078.42 1212.52 Q2083.15 1212.52 2086.09 1216.27 Q2089.05 1220.02 2089.05 1226.14 Q2089.05 1232.25 2086.09 1236 Q2083.15 1239.75 2078.42 1239.75 Q2075.58 1239.75 2073.52 1238.64 Q2071.48 1237.5 2070.14 1235.19 M2084.63 1226.14 Q2084.63 1221.44 2082.68 1218.77 Q2080.76 1216.09 2077.38 1216.09 Q2074 1216.09 2072.06 1218.77 Q2070.14 1221.44 2070.14 1226.14 Q2070.14 1230.83 2072.06 1233.52 Q2074 1236.18 2077.38 1236.18 Q2080.76 1236.18 2082.68 1233.52 Q2084.63 1230.83 2084.63 1226.14 Z" fill="#000000" fill-rule="evenodd" fill-opacity="1"></path><path clip-path="url(#clip290)" d="M2096.76 1204.52 L2115.11 1204.52 L2115.11 1208.45 L2101.04 1208.45 L2101.04 1216.92 Q2102.06 1216.58 2103.08 1216.41 Q2104.1 1216.23 2105.11 1216.23 Q2110.9 1216.23 2114.28 1219.4 Q2117.66 1222.57 2117.66 1227.99 Q2117.66 1233.57 2114.19 1236.67 Q2110.72 1239.75 2104.4 1239.75 Q2102.22 1239.75 2099.95 1239.38 Q2097.71 1239.01 2095.3 1238.27 L2095.3 1233.57 Q2097.38 1234.7 2099.6 1235.26 Q2101.83 1235.81 2104.3 1235.81 Q2108.31 1235.81 2110.65 1233.7 Q2112.98 1231.6 2112.98 1227.99 Q2112.98 1224.38 2110.65 1222.27 Q2108.31 1220.16 2104.3 1220.16 Q2102.43 1220.16 2100.55 1220.58 Q2098.7 1221 2096.76 1221.88 L2096.76 1204.52 Z" fill="#000000" fill-rule="evenodd" fill-opacity="1"></path><polyline clip-path="url(#clip290)" style="stroke:#f5d592; stroke-linecap:round; stroke-linejoin:round; stroke-width:6; stroke-opacity:1; fill:none" points="1871,1273.64 2011.21,1273.64 "></polyline>
<path clip-path="url(#clip290)" d="M2034.58 1256.36 L2054.44 1256.36 L2054.44 1260.29 L2039.26 1260.29 L2039.26 1270.48 L2052.96 1270.48 L2052.96 1274.41 L2039.26 1274.41 L2039.26 1290.92 L2034.58 1290.92 L2034.58 1256.36 Z" fill="#000000" fill-rule="evenodd" fill-opacity="1"></path><path clip-path="url(#clip290)" d="M2081.25 1276.89 L2081.25 1278.97 L2061.67 1278.97 Q2061.94 1283.37 2064.3 1285.68 Q2066.69 1287.98 2070.92 1287.98 Q2073.38 1287.98 2075.67 1287.37 Q2077.98 1286.77 2080.25 1285.57 L2080.25 1289.6 Q2077.96 1290.57 2075.55 1291.08 Q2073.15 1291.59 2070.67 1291.59 Q2064.47 1291.59 2060.83 1287.98 Q2057.22 1284.36 2057.22 1278.21 Q2057.22 1271.84 2060.65 1268.11 Q2064.1 1264.36 2069.93 1264.36 Q2075.16 1264.36 2078.19 1267.74 Q2081.25 1271.1 2081.25 1276.89 M2076.99 1275.64 Q2076.94 1272.14 2075.02 1270.06 Q2073.12 1267.98 2069.98 1267.98 Q2066.41 1267.98 2064.26 1269.99 Q2062.13 1272 2061.8 1275.66 L2076.99 1275.64 Z" fill="#000000" fill-rule="evenodd" fill-opacity="1"></path><path clip-path="url(#clip290)" d="M2103.26 1268.97 Q2102.54 1268.55 2101.69 1268.37 Q2100.85 1268.16 2099.84 1268.16 Q2096.23 1268.16 2094.28 1270.52 Q2092.36 1272.86 2092.36 1277.26 L2092.36 1290.92 L2088.08 1290.92 L2088.08 1264.99 L2092.36 1264.99 L2092.36 1269.02 Q2093.7 1266.66 2095.85 1265.52 Q2098.01 1264.36 2101.09 1264.36 Q2101.53 1264.36 2102.06 1264.43 Q2102.59 1264.48 2103.24 1264.6 L2103.26 1268.97 Z" fill="#000000" fill-rule="evenodd" fill-opacity="1"></path><path clip-path="url(#clip290)" d="M2111.94 1257.63 L2111.94 1264.99 L2120.72 1264.99 L2120.72 1268.3 L2111.94 1268.3 L2111.94 1282.37 Q2111.94 1285.54 2112.8 1286.45 Q2113.68 1287.35 2116.34 1287.35 L2120.72 1287.35 L2120.72 1290.92 L2116.34 1290.92 Q2111.41 1290.92 2109.54 1289.09 Q2107.66 1287.23 2107.66 1282.37 L2107.66 1268.3 L2104.54 1268.3 L2104.54 1264.99 L2107.66 1264.99 L2107.66 1257.63 L2111.94 1257.63 Z" fill="#000000" fill-rule="evenodd" fill-opacity="1"></path><path clip-path="url(#clip290)" d="M2126.32 1264.99 L2130.58 1264.99 L2130.58 1290.92 L2126.32 1290.92 L2126.32 1264.99 M2126.32 1254.9 L2130.58 1254.9 L2130.58 1260.29 L2126.32 1260.29 L2126.32 1254.9 Z" fill="#000000" fill-rule="evenodd" fill-opacity="1"></path><path clip-path="url(#clip290)" d="M2139.49 1254.9 L2143.75 1254.9 L2143.75 1290.92 L2139.49 1290.92 L2139.49 1254.9 Z" fill="#000000" fill-rule="evenodd" fill-opacity="1"></path><path clip-path="url(#clip290)" d="M2174.84 1276.89 L2174.84 1278.97 L2155.25 1278.97 Q2155.53 1283.37 2157.89 1285.68 Q2160.28 1287.98 2164.51 1287.98 Q2166.97 1287.98 2169.26 1287.37 Q2171.57 1286.77 2173.84 1285.57 L2173.84 1289.6 Q2171.55 1290.57 2169.14 1291.08 Q2166.73 1291.59 2164.26 1291.59 Q2158.05 1291.59 2154.42 1287.98 Q2150.81 1284.36 2150.81 1278.21 Q2150.81 1271.84 2154.23 1268.11 Q2157.68 1264.36 2163.52 1264.36 Q2168.75 1264.36 2171.78 1267.74 Q2174.84 1271.1 2174.84 1276.89 M2170.58 1275.64 Q2170.53 1272.14 2168.61 1270.06 Q2166.71 1267.98 2163.56 1267.98 Q2160 1267.98 2157.85 1269.99 Q2155.72 1272 2155.39 1275.66 L2170.58 1275.64 Z" fill="#000000" fill-rule="evenodd" fill-opacity="1"></path><polyline clip-path="url(#clip290)" style="stroke:#000000; stroke-linecap:round; stroke-linejoin:round; stroke-width:6; stroke-opacity:1; fill:none" points="1871,1325.48 2011.21,1325.48 "></polyline>
<path clip-path="url(#clip290)" d="M2039.26 1312.04 L2039.26 1338.91 L2044.91 1338.91 Q2052.06 1338.91 2055.37 1335.67 Q2058.7 1332.43 2058.7 1325.44 Q2058.7 1318.5 2055.37 1315.28 Q2052.06 1312.04 2044.91 1312.04 L2039.26 1312.04 M2034.58 1308.2 L2044.19 1308.2 Q2054.23 1308.2 2058.93 1312.39 Q2063.63 1316.55 2063.63 1325.44 Q2063.63 1334.38 2058.91 1338.57 Q2054.19 1342.76 2044.19 1342.76 L2034.58 1342.76 L2034.58 1308.2 Z" fill="#000000" fill-rule="evenodd" fill-opacity="1"></path><path clip-path="url(#clip290)" d="M2093.08 1328.73 L2093.08 1330.81 L2073.49 1330.81 Q2073.77 1335.21 2076.13 1337.52 Q2078.52 1339.82 2082.75 1339.82 Q2085.21 1339.82 2087.5 1339.21 Q2089.81 1338.61 2092.08 1337.41 L2092.08 1341.44 Q2089.79 1342.41 2087.38 1342.92 Q2084.98 1343.43 2082.5 1343.43 Q2076.29 1343.43 2072.66 1339.82 Q2069.05 1336.2 2069.05 1330.05 Q2069.05 1323.68 2072.48 1319.95 Q2075.92 1316.2 2081.76 1316.2 Q2086.99 1316.2 2090.02 1319.58 Q2093.08 1322.94 2093.08 1328.73 M2088.82 1327.48 Q2088.77 1323.98 2086.85 1321.9 Q2084.95 1319.82 2081.8 1319.82 Q2078.24 1319.82 2076.09 1321.83 Q2073.96 1323.84 2073.63 1327.5 L2088.82 1327.48 Z" fill="#000000" fill-rule="evenodd" fill-opacity="1"></path><path clip-path="url(#clip290)" d="M2117.13 1329.49 Q2117.13 1324.86 2115.21 1322.32 Q2113.31 1319.77 2109.86 1319.77 Q2106.43 1319.77 2104.51 1322.32 Q2102.61 1324.86 2102.61 1329.49 Q2102.61 1334.1 2104.51 1336.64 Q2106.43 1339.19 2109.86 1339.19 Q2113.31 1339.19 2115.21 1336.64 Q2117.13 1334.1 2117.13 1329.49 M2121.39 1339.54 Q2121.39 1346.16 2118.45 1349.38 Q2115.51 1352.62 2109.44 1352.62 Q2107.2 1352.62 2105.21 1352.27 Q2103.22 1351.95 2101.34 1351.25 L2101.34 1347.11 Q2103.22 1348.13 2105.04 1348.61 Q2106.87 1349.1 2108.77 1349.1 Q2112.96 1349.1 2115.04 1346.9 Q2117.13 1344.72 2117.13 1340.3 L2117.13 1338.2 Q2115.81 1340.49 2113.75 1341.62 Q2111.69 1342.76 2108.82 1342.76 Q2104.05 1342.76 2101.13 1339.12 Q2098.22 1335.49 2098.22 1329.49 Q2098.22 1323.47 2101.13 1319.84 Q2104.05 1316.2 2108.82 1316.2 Q2111.69 1316.2 2113.75 1317.34 Q2115.81 1318.47 2117.13 1320.76 L2117.13 1316.83 L2121.39 1316.83 L2121.39 1339.54 Z" fill="#000000" fill-rule="evenodd" fill-opacity="1"></path><path clip-path="url(#clip290)" d="M2145.18 1320.81 Q2144.47 1320.39 2143.61 1320.21 Q2142.78 1320 2141.76 1320 Q2138.15 1320 2136.2 1322.36 Q2134.28 1324.7 2134.28 1329.1 L2134.28 1342.76 L2130 1342.76 L2130 1316.83 L2134.28 1316.83 L2134.28 1320.86 Q2135.62 1318.5 2137.78 1317.36 Q2139.93 1316.2 2143.01 1316.2 Q2143.45 1316.2 2143.98 1316.27 Q2144.51 1316.32 2145.16 1316.44 L2145.18 1320.81 Z" fill="#000000" fill-rule="evenodd" fill-opacity="1"></path><path clip-path="url(#clip290)" d="M2161.43 1329.72 Q2156.27 1329.72 2154.28 1330.9 Q2152.29 1332.08 2152.29 1334.93 Q2152.29 1337.2 2153.77 1338.54 Q2155.28 1339.86 2157.85 1339.86 Q2161.39 1339.86 2163.52 1337.36 Q2165.67 1334.84 2165.67 1330.67 L2165.67 1329.72 L2161.43 1329.72 M2169.93 1327.96 L2169.93 1342.76 L2165.67 1342.76 L2165.67 1338.82 Q2164.21 1341.18 2162.03 1342.32 Q2159.86 1343.43 2156.71 1343.43 Q2152.73 1343.43 2150.37 1341.2 Q2148.03 1338.96 2148.03 1335.21 Q2148.03 1330.83 2150.95 1328.61 Q2153.89 1326.39 2159.7 1326.39 L2165.67 1326.39 L2165.67 1325.97 Q2165.67 1323.03 2163.72 1321.44 Q2161.8 1319.82 2158.31 1319.82 Q2156.09 1319.82 2153.98 1320.35 Q2151.87 1320.88 2149.93 1321.95 L2149.93 1318.01 Q2152.27 1317.11 2154.47 1316.67 Q2156.66 1316.2 2158.75 1316.2 Q2164.37 1316.2 2167.15 1319.12 Q2169.93 1322.04 2169.93 1327.96 Z" fill="#000000" fill-rule="evenodd" fill-opacity="1"></path><path clip-path="url(#clip290)" d="M2195.76 1320.76 L2195.76 1306.74 L2200.02 1306.74 L2200.02 1342.76 L2195.76 1342.76 L2195.76 1338.87 Q2194.42 1341.18 2192.36 1342.32 Q2190.32 1343.43 2187.45 1343.43 Q2182.75 1343.43 2179.79 1339.68 Q2176.85 1335.93 2176.85 1329.82 Q2176.85 1323.7 2179.79 1319.95 Q2182.75 1316.2 2187.45 1316.2 Q2190.32 1316.2 2192.36 1317.34 Q2194.42 1318.45 2195.76 1320.76 M2181.25 1329.82 Q2181.25 1334.51 2183.17 1337.2 Q2185.11 1339.86 2188.49 1339.86 Q2191.87 1339.86 2193.82 1337.2 Q2195.76 1334.51 2195.76 1329.82 Q2195.76 1325.12 2193.82 1322.45 Q2191.87 1319.77 2188.49 1319.77 Q2185.11 1319.77 2183.17 1322.45 Q2181.25 1325.12 2181.25 1329.82 Z" fill="#000000" fill-rule="evenodd" fill-opacity="1"></path><path clip-path="url(#clip290)" d="M2230.97 1328.73 L2230.97 1330.81 L2211.39 1330.81 Q2211.66 1335.21 2214.03 1337.52 Q2216.41 1339.82 2220.65 1339.82 Q2223.1 1339.82 2225.39 1339.21 Q2227.71 1338.61 2229.97 1337.41 L2229.97 1341.44 Q2227.68 1342.41 2225.28 1342.92 Q2222.87 1343.43 2220.39 1343.43 Q2214.19 1343.43 2210.55 1339.82 Q2206.94 1336.2 2206.94 1330.05 Q2206.94 1323.68 2210.37 1319.95 Q2213.82 1316.2 2219.65 1316.2 Q2224.88 1316.2 2227.91 1319.58 Q2230.97 1322.94 2230.97 1328.73 M2226.71 1327.48 Q2226.66 1323.98 2224.74 1321.9 Q2222.84 1319.82 2219.7 1319.82 Q2216.13 1319.82 2213.98 1321.83 Q2211.85 1323.84 2211.53 1327.5 L2226.71 1327.48 Z" fill="#000000" fill-rule="evenodd" fill-opacity="1"></path><path clip-path="url(#clip290)" d="M2255.02 1320.76 L2255.02 1306.74 L2259.28 1306.74 L2259.28 1342.76 L2255.02 1342.76 L2255.02 1338.87 Q2253.68 1341.18 2251.62 1342.32 Q2249.58 1343.43 2246.71 1343.43 Q2242.01 1343.43 2239.05 1339.68 Q2236.11 1335.93 2236.11 1329.82 Q2236.11 1323.7 2239.05 1319.95 Q2242.01 1316.2 2246.71 1316.2 Q2249.58 1316.2 2251.62 1317.34 Q2253.68 1318.45 2255.02 1320.76 M2240.51 1329.82 Q2240.51 1334.51 2242.43 1337.2 Q2244.37 1339.86 2247.75 1339.86 Q2251.13 1339.86 2253.08 1337.2 Q2255.02 1334.51 2255.02 1329.82 Q2255.02 1325.12 2253.08 1322.45 Q2251.13 1319.77 2247.75 1319.77 Q2244.37 1319.77 2242.43 1322.45 Q2240.51 1325.12 2240.51 1329.82 Z" fill="#000000" fill-rule="evenodd" fill-opacity="1"></path></svg>